<svg width="192" height="84" viewBox="0 0 192 84" fill="none" xmlns="http://www.w3.org/2000/svg">
<path d="M178.651 1.05195L12.0682 0.61208C9.02927 0.61208 6.1148 1.8193 3.96595 3.96815C1.81709 6.11701 0.609878 9.03148 0.609878 12.0704L1.99958 81.3479C1.99631 81.7774 2.11381 82.1992 2.33869 82.5652C2.56356 82.9311 2.88676 83.2265 3.27142 83.4177C3.65607 83.6088 4.0867 83.688 4.51419 83.6462C4.94168 83.6044 5.34882 83.4433 5.68916 83.1813L31.1725 63.5784C31.5691 63.2809 32.0516 63.12 32.5475 63.12L180.041 63.5599C181.549 63.5599 183.042 63.2624 184.435 62.6842C185.827 62.1061 187.092 61.2588 188.156 60.1909C189.221 59.123 190.064 57.8556 190.638 56.4612C191.211 55.0667 191.504 53.5728 191.499 52.065L190.11 12.5103C190.11 11.0056 189.813 9.51556 189.238 8.12537C188.662 6.73518 187.818 5.47202 186.754 4.40802C185.69 3.34401 184.427 2.5 183.036 1.92416C181.646 1.34833 180.156 1.05195 178.651 1.05195Z" fill="black"/>
<path d="M28.4219 21.4688C28.2344 21.4688 28.0365 21.4271 27.8281 21.3438C26.5365 20.8646 24.8281 20.625 22.7031 20.625C22.0156 20.625 21.2083 20.6771 20.2812 20.7812C19.3646 20.875 18.3333 21.026 17.1875 21.2344L17.1562 27.9844C19.1667 27.4531 20.6771 27.1875 21.6875 27.1875C23.2917 27.1875 24.9531 27.2812 26.6719 27.4688C27.651 27.5729 28.1406 28.1042 28.1406 29.0625C28.1406 29.5312 27.9896 29.9219 27.6875 30.2344C27.3854 30.5365 27.0104 30.6875 26.5625 30.6875C26.0208 30.6875 25.2083 30.6406 24.125 30.5469C23.0417 30.4531 22.2292 30.4062 21.6875 30.4062C20.9792 30.4062 19.4479 30.7083 17.0938 31.3125L16.9531 42.0625C16.9531 42.5104 16.8073 42.8854 16.5156 43.1875C16.224 43.5 15.8542 43.6562 15.4062 43.6562C14.9583 43.6562 14.5833 43.5 14.2812 43.1875C13.9896 42.8854 13.8438 42.5104 13.8438 42.0625C13.8438 40.0104 13.8802 36.9323 13.9531 32.8281C14.0365 28.7135 14.0781 25.6302 14.0781 23.5781C14.0781 23.1198 14.0677 22.4323 14.0469 21.5156C14.0365 20.5885 14.0312 19.8958 14.0312 19.4375C14.0312 18.9792 14.1719 18.5938 14.4531 18.2812C14.7448 17.9688 15.1198 17.8125 15.5781 17.8125C15.9219 17.8125 16.2292 17.9062 16.5 18.0938C17.7917 17.8646 18.9531 17.6979 19.9844 17.5938C21.0156 17.4792 21.9219 17.4219 22.7031 17.4219C23.901 17.4219 25.2708 17.5938 26.8125 17.9375C28.9062 18.4167 29.9531 19.0417 29.9531 19.8125C29.9531 20.2292 29.8177 20.599 29.5469 20.9219C29.2448 21.2865 28.8698 21.4688 28.4219 21.4688Z" fill="white"/>
<path d="M40.0469 42.7188C37.6927 42.7188 35.7865 42.1302 34.3281 40.9531C32.7344 39.651 31.9375 37.8281 31.9375 35.4844C31.9375 32.776 32.5938 30.5052 33.9062 28.6719C35.3333 26.6719 37.2396 25.6719 39.625 25.6719C41.3542 25.6719 42.7656 25.9635 43.8594 26.5469C45.2031 27.2656 45.875 28.3698 45.875 29.8594C45.875 30.901 45.2865 31.849 44.1094 32.7031C43.5885 33.0781 42.4844 33.6615 40.7969 34.4531L34.8281 37.2812C35.4115 38.1458 36.1354 38.7969 37 39.2344C37.875 39.6719 38.8906 39.8906 40.0469 39.8906C40.7656 39.8906 41.6094 39.7552 42.5781 39.4844C43.8073 39.1406 44.599 38.6927 44.9531 38.1406C45.3073 37.5781 45.6875 37.2969 46.0938 37.2969C46.4583 37.2969 46.7812 37.4375 47.0625 37.7188C47.3542 37.9896 47.5 38.3073 47.5 38.6719C47.5 39.8281 46.5677 40.8229 44.7031 41.6562C43.1094 42.3646 41.5573 42.7188 40.0469 42.7188ZM39.625 28.4844C38.3542 28.4844 37.2969 28.9792 36.4531 29.9688C35.6094 30.9479 34.9792 32.4271 34.5625 34.4062L39.3594 32.125C41.2448 31.2083 42.5885 30.4115 43.3906 29.7344C42.4948 28.901 41.2396 28.4844 39.625 28.4844Z" fill="white"/>
<path d="M57.5781 42.7188C55.224 42.7188 53.3177 42.1302 51.8594 40.9531C50.2656 39.651 49.4688 37.8281 49.4688 35.4844C49.4688 32.776 50.125 30.5052 51.4375 28.6719C52.8646 26.6719 54.7708 25.6719 57.1562 25.6719C58.8854 25.6719 60.2969 25.9635 61.3906 26.5469C62.7344 27.2656 63.4062 28.3698 63.4062 29.8594C63.4062 30.901 62.8177 31.849 61.6406 32.7031C61.1198 33.0781 60.0156 33.6615 58.3281 34.4531L52.3594 37.2812C52.9427 38.1458 53.6667 38.7969 54.5312 39.2344C55.4062 39.6719 56.4219 39.8906 57.5781 39.8906C58.2969 39.8906 59.1406 39.7552 60.1094 39.4844C61.3385 39.1406 62.1302 38.6927 62.4844 38.1406C62.8385 37.5781 63.2188 37.2969 63.625 37.2969C63.9896 37.2969 64.3125 37.4375 64.5938 37.7188C64.8854 37.9896 65.0312 38.3073 65.0312 38.6719C65.0312 39.8281 64.099 40.8229 62.2344 41.6562C60.6406 42.3646 59.0885 42.7188 57.5781 42.7188ZM57.1562 28.4844C55.8854 28.4844 54.8281 28.9792 53.9844 29.9688C53.1406 30.9479 52.5104 32.4271 52.0938 34.4062L56.8906 32.125C58.776 31.2083 60.1198 30.4115 60.9219 29.7344C60.026 28.901 58.7708 28.4844 57.1562 28.4844Z" fill="white"/>
<path d="M82.2031 28.2031C82.0781 29.7344 82.0156 31.2656 82.0156 32.7969C82.0156 36.2656 82.1771 38.8854 82.5 40.6562C82.5208 40.8021 82.5312 40.9219 82.5312 41.0156C82.5312 41.4323 82.3854 41.776 82.0938 42.0469C81.8021 42.3177 81.4635 42.4531 81.0781 42.4531C80.4323 42.4531 79.9583 41.9844 79.6562 41.0469C78.9062 41.599 78.125 42.0156 77.3125 42.2969C76.5104 42.5781 75.6719 42.7188 74.7969 42.7188C72.6406 42.7188 70.8542 42 69.4375 40.5625C67.9792 39.0938 67.25 37.2083 67.25 34.9062C67.25 32.125 67.9844 29.8958 69.4531 28.2188C70.9323 26.5417 72.849 25.7031 75.2031 25.7031C76.4115 25.7031 77.3438 25.8906 78 26.2656L79.4688 27.3438C79.6146 22.9583 79.7865 20.0052 79.9844 18.4844C80.1198 17.5573 80.5938 17.0938 81.4062 17.0938C82.3542 17.0938 82.8281 17.599 82.8281 18.6094C82.8281 20.0573 82.6198 23.2552 82.2031 28.2031ZM75.2656 28.6094C73.5156 28.6094 72.2031 29.1302 71.3281 30.1719C70.4531 31.2031 70.0156 32.7604 70.0156 34.8438C70.0156 36.1875 70.4896 37.3438 71.4375 38.3125C72.3958 39.2812 73.5156 39.7656 74.7969 39.7656C75.6719 39.7656 76.4115 39.6042 77.0156 39.2812C77.3698 39.0938 77.9479 38.6615 78.75 37.9844C78.9062 37.849 79.0573 37.6875 79.2031 37.5L79.1562 34.7969L79.1719 32.9844L79.2031 31.1406C78.8073 30.2969 78.2812 29.6667 77.625 29.25C76.9688 28.8229 76.1823 28.6094 75.2656 28.6094Z" fill="white"/>
<path d="M119.406 43.2969C118.844 43.2969 118.38 43.0052 118.016 42.4219C117.703 41.9219 117.422 41.0885 117.172 39.9219L116.609 37.2344C116.182 35.5677 115.505 31.8906 114.578 26.2031L111.453 35.625L110.531 38.5938C110.156 39.7708 109.766 40.7344 109.359 41.4844C108.922 42.276 108.333 42.6719 107.594 42.6719C106.979 42.6719 106.495 42.3385 106.141 41.6719C105.911 41.2344 105.703 40.6771 105.516 40L105.062 38.2656C104.01 34.5885 103.083 30.651 102.281 26.4531L101.719 29.25L99.7031 37.5C99.6198 38.4688 99.3594 39.901 98.9219 41.7969C98.6094 42.6094 98.0938 43.0156 97.375 43.0156C96.8646 43.0156 96.4583 42.8333 96.1562 42.4688C95.8958 42.1562 95.7656 41.7708 95.7656 41.3125C95.7656 39.5729 96.125 37.4375 96.8438 34.9062L98.5625 28.6094L99.4688 23.6875C99.9271 21.3854 100.411 19.8802 100.922 19.1719C101.339 18.5677 101.854 18.2656 102.469 18.2656C103.146 18.2656 103.651 18.651 103.984 19.4219C104.391 20.349 104.828 22.2396 105.297 25.0938C105.849 28.5208 106.708 32.2292 107.875 36.2188C109.417 32.2083 110.75 28.0312 111.875 23.6875L112.344 21.4062C112.531 20.4896 112.776 19.75 113.078 19.1875C113.484 18.4167 114.042 18.0312 114.75 18.0312C115.646 18.0312 116.328 18.8958 116.797 20.625C116.964 21.2188 117.167 22.4479 117.406 24.3125C118.021 29.0208 118.786 33.0417 119.703 36.375L120.469 39.0625C120.865 40.5 121.062 41.3854 121.062 41.7188C121.062 42.1667 120.891 42.5417 120.547 42.8438C120.214 43.1458 119.833 43.2969 119.406 43.2969Z" fill="white"/>
<path d="M131.734 42.7188C129.38 42.7188 127.474 42.1302 126.016 40.9531C124.422 39.651 123.625 37.8281 123.625 35.4844C123.625 32.776 124.281 30.5052 125.594 28.6719C127.021 26.6719 128.927 25.6719 131.312 25.6719C133.042 25.6719 134.453 25.9635 135.547 26.5469C136.891 27.2656 137.562 28.3698 137.562 29.8594C137.562 30.901 136.974 31.849 135.797 32.7031C135.276 33.0781 134.172 33.6615 132.484 34.4531L126.516 37.2812C127.099 38.1458 127.823 38.7969 128.688 39.2344C129.562 39.6719 130.578 39.8906 131.734 39.8906C132.453 39.8906 133.297 39.7552 134.266 39.4844C135.495 39.1406 136.286 38.6927 136.641 38.1406C136.995 37.5781 137.375 37.2969 137.781 37.2969C138.146 37.2969 138.469 37.4375 138.75 37.7188C139.042 37.9896 139.188 38.3073 139.188 38.6719C139.188 39.8281 138.255 40.8229 136.391 41.6562C134.797 42.3646 133.245 42.7188 131.734 42.7188ZM131.312 28.4844C130.042 28.4844 128.984 28.9792 128.141 29.9688C127.297 30.9479 126.667 32.4271 126.25 34.4062L131.047 32.125C132.932 31.2083 134.276 30.4115 135.078 29.7344C134.182 28.901 132.927 28.4844 131.312 28.4844Z" fill="white"/>
<path d="M149.266 42.7188C146.911 42.7188 145.005 42.1302 143.547 40.9531C141.953 39.651 141.156 37.8281 141.156 35.4844C141.156 32.776 141.812 30.5052 143.125 28.6719C144.552 26.6719 146.458 25.6719 148.844 25.6719C150.573 25.6719 151.984 25.9635 153.078 26.5469C154.422 27.2656 155.094 28.3698 155.094 29.8594C155.094 30.901 154.505 31.849 153.328 32.7031C152.807 33.0781 151.703 33.6615 150.016 34.4531L144.047 37.2812C144.63 38.1458 145.354 38.7969 146.219 39.2344C147.094 39.6719 148.109 39.8906 149.266 39.8906C149.984 39.8906 150.828 39.7552 151.797 39.4844C153.026 39.1406 153.818 38.6927 154.172 38.1406C154.526 37.5781 154.906 37.2969 155.312 37.2969C155.677 37.2969 156 37.4375 156.281 37.7188C156.573 37.9896 156.719 38.3073 156.719 38.6719C156.719 39.8281 155.786 40.8229 153.922 41.6562C152.328 42.3646 150.776 42.7188 149.266 42.7188ZM148.844 28.4844C147.573 28.4844 146.516 28.9792 145.672 29.9688C144.828 30.9479 144.198 32.4271 143.781 34.4062L148.578 32.125C150.464 31.2083 151.807 30.4115 152.609 29.7344C151.714 28.901 150.458 28.4844 148.844 28.4844Z" fill="white"/>
<path d="M166.797 42.7188C164.443 42.7188 162.536 42.1302 161.078 40.9531C159.484 39.651 158.688 37.8281 158.688 35.4844C158.688 32.776 159.344 30.5052 160.656 28.6719C162.083 26.6719 163.99 25.6719 166.375 25.6719C168.104 25.6719 169.516 25.9635 170.609 26.5469C171.953 27.2656 172.625 28.3698 172.625 29.8594C172.625 30.901 172.036 31.849 170.859 32.7031C170.339 33.0781 169.234 33.6615 167.547 34.4531L161.578 37.2812C162.161 38.1458 162.885 38.7969 163.75 39.2344C164.625 39.6719 165.641 39.8906 166.797 39.8906C167.516 39.8906 168.359 39.7552 169.328 39.4844C170.557 39.1406 171.349 38.6927 171.703 38.1406C172.057 37.5781 172.438 37.2969 172.844 37.2969C173.208 37.2969 173.531 37.4375 173.812 37.7188C174.104 37.9896 174.25 38.3073 174.25 38.6719C174.25 39.8281 173.318 40.8229 171.453 41.6562C169.859 42.3646 168.307 42.7188 166.797 42.7188ZM166.375 28.4844C165.104 28.4844 164.047 28.9792 163.203 29.9688C162.359 30.9479 161.729 32.4271 161.312 34.4062L166.109 32.125C167.995 31.2083 169.339 30.4115 170.141 29.7344C169.245 28.901 167.99 28.4844 166.375 28.4844Z" fill="white"/>
</svg>
