<?xml version="1.0" encoding="UTF-8"?>
<svg width="317px" height="368px" viewBox="0 0 317 368" version="1.1" xmlns="http://www.w3.org/2000/svg" xmlns:xlink="http://www.w3.org/1999/xlink">
    <title>Pusheen-Character-Badge-1</title>
    <g id="Page-1" stroke="none" stroke-width="1" fill="none" fill-rule="evenodd">
        <g id="Pusheen-Character-Badge-1" transform="translate(0.276986, 0.098071)" fill-rule="nonzero">
            <g id="Group">
                <g id="Body" transform="translate(0.000000, 0.000000)">
                    <g id="Group" transform="translate(4.081292, 4.140215)">
                        <path d="M148.941723,349.861714 C185.141723,351.061714 214.541723,350.261714 245.741723,339.561714 C267.341723,332.161714 289.541723,311.661714 298.941723,287.861714 C308.341723,264.061714 309.241723,237.661714 306.841723,212.161714 C301.441723,154.661714 282.041723,102.161714 257.141723,49.961714 C251.041723,37.261714 242.241723,22.261714 233.041723,11.661714 C226.441723,3.86171395 221.541723,-1.23828605 211.641723,0.261713952 C209.641723,0.561713952 205.841723,1.66171395 202.041723,5.06171395 C198.641723,8.16171395 195.141723,13.561714 194.141723,15.161714 C189.341723,23.061714 188.441723,24.861714 185.141723,33.261714 C175.941723,34.161714 160.941723,34.461714 155.441723,34.861714 C152.441723,27.661714 148.641723,22.161714 143.141723,14.861714 C138.441723,8.66171395 131.041723,3.66171395 123.241723,4.26171395 C112.141723,4.96171395 103.441723,18.861714 97.8417228,29.661714 C81.5417228,60.961714 73.0417228,76.361714 53.0417228,105.361714 C40.6417228,123.261714 20.9417228,156.661714 12.2417228,176.561714 C-2.55827719,210.661714 -4.15827719,255.961714 8.64172281,290.861714 C13.1417228,303.261714 22.1417228,316.961714 31.5417228,326.261714 C41.1417228,335.861714 53.4417228,343.161714 65.8417228,347.961714 C86.5417228,355.961714 105.341723,359.461714 123.441723,359.461714 C129.141723,359.461714 138.441723,358.561714 141.741723,356.861714 C146.841723,354.261714 149.041723,350.261714 148.741723,344.561714 C148.441723,338.761714 144.341723,334.461714 138.941723,332.361714 C133.541723,330.261714 125.841723,329.461714 120.141723,328.661714 C98.5417228,325.761714 80.0417228,317.761714 55.9417228,306.561714" id="Path" fill="#B5A99C"></path>
                        <path d="M66.9417228,87.261714 C58.6417228,96.361714 51.0417228,106.661714 43.6417228,119.661714 C47.5417228,123.561714 56.6417228,127.261714 60.1417228,127.261714 C71.9417228,127.261714 81.4417228,117.761714 81.4417228,105.961714 C81.3417228,97.861714 73.5417228,90.861714 66.9417228,87.261714 Z" id="Path" fill="#6C5C48"></path>
                        <path d="M40.1417228,129.361714 C35.8417228,134.761714 25.5417228,148.861714 27.3417228,145.761714 C29.1417228,142.661714 21.3417228,154.161714 18.1417228,164.461714 C22.0417228,168.361714 27.3417228,170.761714 33.2417228,170.761714 C45.0417228,170.761714 54.5417228,161.261714 54.5417228,149.461714 C54.4417228,140.161714 48.4417228,132.161714 40.1417228,129.361714 Z" id="Path" fill="#6C5C48"></path>
                        <path d="M64.5417228,311.161714 C61.3417228,309.261714 55.5417228,304.061714 51.7417228,305.961714 C46.6417228,315.861714 43.5417228,325.361714 41.7417228,334.861714 C45.6417228,338.661714 50.5417228,340.761714 55.5417228,342.961714 L62.1417228,346.461714 C63.1417228,337.161714 67.3417228,325.961714 72.8417228,315.661714 C70.0417228,313.861714 67.3417228,312.761714 64.5417228,311.161714 Z" id="Path" fill="#6C5C48"></path>
                        <path d="M98.1417228,323.461714 C94.7417228,321.961714 90.3417228,321.361714 85.3417228,320.661714 C81.3417228,331.061714 79.0417228,340.961714 78.2417228,350.661714 C82.5417228,353.961714 88.1417228,354.661714 93.3417228,356.261714 L100.341723,357.161714 C100.341723,347.861714 102.541723,337.661714 106.841723,326.861714 C104.041723,325.261714 101.141723,324.761714 98.1417228,323.461714 Z" id="Path" fill="#6C5C48"></path>
                        <path d="M120.841723,336.261714 C119.441723,339.761714 119.141723,343.561714 118.741723,347.361714 C118.441723,350.661714 118.141723,354.061714 118.941723,357.261714 C119.041723,357.561714 119.141723,357.861714 119.341723,358.061714 C119.641723,358.361714 120.041723,358.361714 120.441723,358.461714 C122.641723,358.561714 124.941723,358.261714 127.141723,358.061714 C130.241723,357.661714 133.341723,357.261714 136.441723,356.661714 C138.641723,356.261714 140.841723,355.661714 142.641723,354.461714 C145.541723,352.661714 147.341723,349.361714 147.541723,345.961714 C147.741723,342.561714 146.241723,339.161714 143.741723,336.761714 C139.841723,333.161714 134.141723,332.461714 128.841723,332.261714 C127.341723,332.161714 124.441723,331.561714 123.141723,332.161714 C121.941723,332.661714 121.241723,335.061714 120.841723,336.261714 Z" id="Path" fill="#6C5C48"></path>
                        <path d="M163.241723,39.561714 C163.041723,38.661714 162.841723,35.861714 162.641723,34.961714 C159.141723,34.761714 155.541723,34.661714 152.041723,34.661714 C152.441723,36.461714 152.841723,40.061714 153.241723,41.861714 C153.841723,44.361714 154.441723,46.961714 154.941723,49.461714 C155.441723,51.861714 157.641723,53.461714 159.941723,53.461714 C160.341723,53.461714 160.741723,53.461714 161.141723,53.361714 C163.941723,52.761714 165.641723,49.961714 165.041723,47.161714 C164.441723,44.561714 163.841723,42.061714 163.241723,39.561714 Z" id="Path" fill="#6C5C48"></path>
                        <path d="M189.441723,37.261714 C189.241723,36.361714 189.041723,34.461714 188.841723,33.561714 C185.341723,33.361714 181.741723,33.261714 178.241723,33.261714 C178.641723,35.061714 179.041723,37.761714 179.441723,39.561714 C180.041723,42.061714 180.641723,44.661714 181.141723,47.161714 C181.641723,49.561714 183.841723,51.161714 186.141723,51.161714 C186.541723,51.161714 186.941723,51.161714 187.341723,51.061714 C190.141723,50.461714 191.841723,47.661714 191.241723,44.861714 C190.541723,42.361714 189.941723,39.861714 189.441723,37.261714 Z" id="Path" fill="#6C5C48"></path>
                        <path d="M176.441723,38.661714 C176.241723,37.761714 176.041723,35.461714 175.841723,34.461714 C172.341723,34.261714 168.741723,34.161714 165.241723,34.161714 C165.641723,35.961714 166.041723,39.161714 166.441723,40.961714 C167.041723,43.461714 167.641723,46.061714 168.141723,48.561714 C168.641723,50.961714 170.841723,52.561714 173.141723,52.561714 C173.541723,52.561714 173.941723,52.561714 174.341723,52.461714 C177.141723,51.861714 178.841723,49.061714 178.241723,46.261714 C177.541723,43.661714 176.941723,41.161714 176.441723,38.661714 Z" id="Path" fill="#6C5C48"></path>
                    </g>
                    <path d="M127.723014,367.701929 C127.623014,367.701929 127.623014,367.701929 127.523014,367.701929 C108.023014,367.601929 88.7230145,363.801929 68.4230145,355.901929 C54.4230145,350.501929 42.1230145,342.601929 32.7230145,333.201929 C22.7230145,323.201929 13.6230145,309.101929 8.9230145,296.301929 C-4.1769855,260.501929 -2.7769855,214.401929 12.6230145,179.001929 C21.2230145,159.101929 40.8230145,125.801929 53.8230145,107.101929 C73.6230145,78.5019288 82.2230145,62.9019288 98.4230145,31.8019288 C104.323014,20.4019288 113.823014,5.10192877 127.123014,4.20192877 C135.523014,3.60192877 144.223014,8.20192877 150.523014,16.4019288 C155.723014,23.2019288 159.223014,28.4019288 162.123014,34.6019288 C163.923014,34.5019288 166.123014,34.4019288 168.523014,34.3019288 C174.123014,34.1019288 180.923014,33.8019288 186.323014,33.4019288 C189.023014,26.8019288 190.223014,24.5019288 194.723014,17.1019288 C194.923014,16.8019288 198.923014,10.1019288 203.323014,6.10192877 C208.223014,1.70192877 213.123014,0.501928768 215.023014,0.301928768 C227.123014,-1.49807123 233.823014,5.00192877 240.723014,13.1019288 C250.723014,24.7019288 259.323014,40.9019288 264.723014,52.3019288 C294.523014,114.801929 310.023014,165.301929 314.823014,215.801929 C317.723014,246.801929 315.123014,272.201929 306.723014,293.401929 C297.123014,317.601929 274.723014,339.301929 251.023014,347.401929 C221.123014,357.701929 192.923014,359.101929 154.823014,358.001929 C153.223014,360.801929 150.823014,363.001929 147.523014,364.701929 C143.323014,366.901929 133.223014,367.701929 127.723014,367.701929 Z M128.623014,12.3019288 C128.323014,12.3019288 128.023014,12.3019288 127.723014,12.3019288 C117.423014,13.0019288 108.523014,30.0019288 105.623014,35.6019288 C89.2230145,67.1019288 80.6230145,82.8019288 60.5230145,111.801929 C47.8230145,130.201929 28.5230145,162.901929 20.1230145,182.301929 C5.7230145,215.401929 4.3230145,260.201929 16.6230145,293.601929 C20.8230145,305.101929 29.4230145,318.501929 38.5230145,327.501929 C47.1230145,336.101929 58.5230145,343.301929 71.4230145,348.301929 C90.7230145,355.801929 109.023014,359.501929 127.523014,359.501929 C133.723014,359.501929 141.723014,358.501929 144.023014,357.401929 C147.623014,355.601929 149.023014,353.101929 148.823014,348.901929 C148.523014,343.501929 143.723014,341.001929 141.623014,340.201929 C137.323014,338.501929 131.023014,337.701929 125.923014,337.101929 C125.123014,337.001929 124.423014,336.901929 123.723014,336.801929 C104.323014,334.201929 81.2230145,329.601929 57.2230145,315.001929 C55.3230145,313.801929 54.7230145,311.301929 55.9230145,309.401929 C57.1230145,307.501929 59.6230145,306.901929 61.5230145,308.101929 C84.2230145,322.001929 106.223014,326.401929 124.823014,328.801929 C125.523014,328.901929 126.223014,329.001929 127.023014,329.101929 C132.523014,329.801929 139.423014,330.701929 144.623014,332.801929 C151.923014,335.701929 156.523014,341.601929 156.923014,348.601929 C156.923014,349.101929 156.923014,349.601929 156.923014,350.001929 C193.223014,351.001929 220.123014,349.501929 248.423014,339.801929 C269.723014,332.501929 290.523014,312.201929 299.123014,290.501929 C307.023014,270.501929 309.523014,246.301929 306.723014,216.601929 C302.023014,167.001929 286.823014,117.401929 257.423014,55.8019288 C252.123014,44.8019288 243.923014,29.3019288 234.523014,18.3019288 C227.823014,10.5019288 223.623014,7.20192877 216.123014,8.30192877 C215.223014,8.40192877 212.023014,9.10192877 208.723014,12.1019288 C205.823014,14.8019288 202.523014,19.6019288 201.523014,21.3019288 C196.823014,29.1019288 195.923014,30.7019288 192.823014,38.7019288 C192.223014,40.1019288 190.923014,41.1019288 189.423014,41.3019288 C183.523014,41.9019288 175.323014,42.2019288 168.723014,42.5019288 C164.923014,42.7019288 161.623014,42.8019288 159.723014,42.9019288 C158.023014,43.0019288 156.323014,42.0019288 155.623014,40.4019288 C152.923014,33.8019288 149.423014,28.6019288 143.923014,21.3019288 C140.723014,16.9019288 134.923014,12.3019288 128.623014,12.3019288 Z" id="Shape" fill="#4A280C"></path>
                </g>
                <g id="Paws" transform="translate(177.137822, 321.309281)">
                    <path d="M4.68519278,10.2926482 C3.88519278,19.5926482 2.28519278,33.2926482 11.7851928,38.9926482 C15.9851928,41.4926482 21.3851928,41.1926482 25.0851928,38.0926482 C28.6851928,35.0926482 29.5851928,30.3926482 29.3851928,25.8926482 C28.9851928,19.5926482 26.6851928,13.4926482 23.9851928,7.89264817" id="Path" fill="#B5A99C"></path>
                    <path d="M49.2851928,6.09264817 C47.8851928,12.0926482 48.0851928,18.1926482 49.4851928,24.1926482 C50.0851928,26.9926482 51.0851928,29.6926482 52.9851928,31.8926482 C54.9851928,34.0926482 57.9851928,35.4926482 60.9851928,35.4926482 C63.9851928,35.4926482 66.9851928,34.1926482 68.9851928,31.9926482 C71.3851928,29.3926482 72.3851928,25.6926482 72.3851928,22.0926482 C72.3851928,18.4926482 71.4851928,14.9926482 70.5851928,11.5926482 C69.8851928,8.99264817 69.1851928,6.39264817 67.7851928,4.09264817" id="Path" fill="#B5A99C"></path>
                    <path d="M17.8851928,44.8926482 C15.0851928,44.8926482 12.2851928,44.0926482 9.68519278,42.5926482 C-1.51480722,35.7926482 -0.314807224,21.0926482 0.485192776,11.3926482 L0.585192776,10.0926482 C0.785192776,7.89264817 2.68519278,6.19264817 4.98519278,6.39264817 C7.18519278,6.59264817 8.88519278,8.49264817 8.68519278,10.7926482 L8.58519278,12.0926482 C7.88519278,20.6926482 6.98519278,31.4926482 13.8851928,35.6926482 C16.5851928,37.2926482 20.1851928,37.0926482 22.4851928,35.0926482 C24.5851928,33.3926482 25.4851928,30.3926482 25.2851928,26.1926482 C24.9851928,20.0926482 22.3851928,14.1926482 20.2851928,9.69264817 C19.2851928,7.69264817 20.1851928,5.19264817 22.1851928,4.29264817 C24.1851928,3.29264817 26.6851928,4.19264817 27.5851928,6.19264817 C30.0851928,11.2926482 32.9851928,18.1926482 33.3851928,25.7926482 C33.7851928,32.4926482 31.7851928,37.8926482 27.6851928,41.3926482 C24.9851928,43.5926482 21.4851928,44.8926482 17.8851928,44.8926482 Z" id="Path" fill="#4A280C"></path>
                    <path d="M61.0851928,39.4926482 C61.0851928,39.4926482 60.9851928,39.4926482 60.9851928,39.4926482 C56.8851928,39.4926482 52.7851928,37.5926482 49.9851928,34.5926482 C47.2851928,31.4926482 46.0851928,27.6926482 45.4851928,25.0926482 C43.8851928,18.0926482 43.7851928,11.3926482 45.2851928,5.19264817 C45.7851928,2.99264817 47.9851928,1.69264817 50.1851928,2.19264817 C52.3851928,2.69264817 53.6851928,4.89264817 53.1851928,7.09264817 C51.9851928,12.0926482 52.0851928,17.4926482 53.3851928,23.2926482 C53.9851928,25.9926482 54.8851928,27.8926482 55.9851928,29.1926482 C57.1851928,30.5926482 59.0851928,31.3926482 60.9851928,31.3926482 C60.9851928,31.3926482 60.9851928,31.3926482 61.0851928,31.3926482 C62.8851928,31.3926482 64.7851928,30.5926482 66.0851928,29.1926482 C68.0851928,26.9926482 68.3851928,23.7926482 68.4851928,22.0926482 C68.4851928,19.0926482 67.6851928,16.0926482 66.7851928,12.5926482 C66.0851928,9.99264817 65.4851928,7.89264817 64.3851928,6.19264817 C63.1851928,4.29264817 63.8851928,1.79264817 65.7851928,0.592648174 C67.6851928,-0.607351826 70.1851928,0.0926481741 71.3851928,1.99264817 C73.0851928,4.89264817 73.9851928,7.99264817 74.6851928,10.5926482 C75.7851928,14.5926482 76.6851928,18.1926482 76.5851928,22.1926482 C76.5851928,27.1926482 74.9851928,31.6926482 72.0851928,34.7926482 C69.1851928,37.6926482 65.1851928,39.4926482 61.0851928,39.4926482 Z" id="Path" fill="#4A280C"></path>
                </g>
                <g id="Face" transform="translate(53.821669, 54.489916)" fill="#4A280C">
                    <path d="M122.901345,35.7120125 C121.601345,35.7120125 120.201345,35.4120125 118.701345,34.8120125 C116.601345,33.9120125 115.701345,31.5120125 116.601345,29.4120125 C117.501345,27.3120125 119.901345,26.4120125 122.001345,27.3120125 C123.101345,27.8120125 123.701345,27.6120125 125.201345,26.2120125 C125.301345,26.1120125 125.401345,26.0120125 125.401345,26.0120125 C125.501345,25.8120125 125.601345,25.4120125 125.601345,25.1120125 L125.701345,24.7120125 C125.801345,24.2120125 125.901345,23.6120125 125.901345,22.8120125 C125.901345,21.9120125 125.801345,20.9120125 125.701345,19.7120125 C125.601345,18.5120125 125.401345,17.2120125 125.401345,15.9120125 C125.401345,13.7120125 127.201345,11.8120125 129.401345,11.8120125 C131.601345,11.8120125 133.501345,13.6120125 133.501345,15.8120125 C133.501345,16.7120125 133.601345,17.7120125 133.701345,18.9120125 C133.801345,20.1120125 134.001345,21.4120125 134.001345,22.7120125 C134.001345,24.2120125 133.901345,25.5120125 133.601345,26.7120125 L133.501345,27.1120125 C133.101345,28.6120125 132.701345,30.6120125 130.901345,32.1120125 C130.801345,32.2120125 130.701345,32.2120125 130.601345,32.3120125 C129.601345,33.2120125 126.901345,35.7120125 122.901345,35.7120125 Z" id="Shape"></path>
                    <path d="M138.001345,34.7120125 C136.501345,34.7120125 134.901345,34.4120125 133.401345,33.7120125 C129.301345,31.9120125 126.501345,28.0120125 126.001345,23.5120125 C125.701345,21.3120125 127.301345,19.2120125 129.501345,19.0120125 C131.701345,18.7120125 133.801345,20.3120125 134.001345,22.5120125 C134.301345,24.8120125 135.701345,25.8120125 136.501345,26.2120125 C137.501345,26.7120125 138.301345,26.6120125 138.501345,26.5120125 C140.301345,25.2120125 142.901345,25.7120125 144.201345,27.5120125 C145.501345,29.3120125 145.001345,31.9120125 143.201345,33.2120125 C141.701345,34.2120125 139.901345,34.7120125 138.001345,34.7120125 Z" id="Path"></path>
                    <circle id="Oval" cx="91.0013452" cy="25.4120125" r="9.3"></circle>
                    <circle id="Oval" cx="169.201345" cy="19.7120125" r="9.3"></circle>
                    <path d="M50.6013452,18.2120125 C50.2013452,18.2120125 49.8013452,18.1120125 49.5013452,18.0120125 C36.7013452,14.3120125 23.7013452,13.2120125 7.40134519,14.5120125 C5.10134519,14.7120125 3.20134519,13.0120125 3.00134519,10.8120125 C2.80134519,8.61201247 4.50134519,6.61201247 6.70134519,6.41201247 C23.7013452,5.11201247 38.0013452,6.31201247 51.6013452,10.2120125 C53.8013452,10.8120125 55.0013452,13.1120125 54.4013452,15.2120125 C54.0013452,17.0120125 52.4013452,18.2120125 50.6013452,18.2120125 Z" id="Path"></path>
                    <path d="M4.10134519,36.6120125 C2.20134519,36.6120125 0.501345189,35.3120125 0.101345189,33.4120125 C-0.398654811,31.2120125 1.00134519,29.0120125 3.20134519,28.6120125 C22.4013452,24.4120125 37.2013452,23.4120125 49.9013452,25.2120125 C52.1013452,25.5120125 53.7013452,27.6120125 53.3013452,29.8120125 C52.9013452,32.0120125 50.9013452,33.6120125 48.7013452,33.2120125 C37.0013452,31.5120125 23.1013452,32.6120125 4.90134519,36.5120125 C4.70134519,36.6120125 4.40134519,36.6120125 4.10134519,36.6120125 Z" id="Path"></path>
                    <path d="M214.201345,13.5120125 C212.601345,13.5120125 211.001345,12.5120125 210.401345,10.9120125 C209.601345,8.81201247 210.601345,6.51201247 212.701345,5.61201247 C227.601345,-0.0879875332 238.901345,-0.487987533 245.801345,0.312012467 C248.001345,0.512012467 249.701345,2.51201247 249.401345,4.81201247 C249.201345,7.01201247 247.201345,8.71201247 244.901345,8.41201247 C238.901345,7.81201247 228.901345,8.11201247 215.501345,13.2120125 C215.101345,13.4120125 214.601345,13.5120125 214.201345,13.5120125 Z" id="Path"></path>
                    <path d="M246.201345,28.1120125 C245.801345,28.1120125 245.401345,28.0120125 245.001345,27.9120125 C237.901345,25.6120125 227.501345,26.8120125 220.601345,27.6120125 C218.401345,27.9120125 216.401345,26.3120125 216.101345,24.0120125 C215.801345,21.8120125 217.401345,19.8120125 219.701345,19.5120125 C227.701345,18.6120125 238.701345,17.3120125 247.501345,20.1120125 C249.601345,20.8120125 250.801345,23.1120125 250.101345,25.2120125 C249.501345,27.0120125 247.901345,28.1120125 246.201345,28.1120125 Z" id="Path"></path>
                </g>
            </g>
        </g>
    </g>
</svg>